<svg
   xmlns:dc="http://purl.org/dc/elements/1.1/"
   xmlns:cc="http://creativecommons.org/ns#"
   xmlns:rdf="http://www.w3.org/1999/02/22-rdf-syntax-ns#"
   xmlns:svg="http://www.w3.org/2000/svg"
   xmlns="http://www.w3.org/2000/svg"
   xmlns:sodipodi="http://sodipodi.sourceforge.net/DTD/sodipodi-0.dtd"
   xmlns:inkscape="http://www.inkscape.org/namespaces/inkscape"
   width="65.97789"
   height="57.299992"
   viewBox="0 -9 17.456649 34.160622"
   version="1.1"
   id="svg3460"
   inkscape:version="0.92.0 r15299"
   sodipodi:docname="scarlet.svg">
  <defs
     id="defs3454" />
  <sodipodi:namedview
     id="base"
     pagecolor="#ffffff"
     bordercolor="#666666"
     borderopacity="1.0"
     inkscape:pageopacity="0.0"
     inkscape:pageshadow="2"
     inkscape:zoom="9.4671414"
     inkscape:cx="32.488944"
     inkscape:cy="28.149997"
     inkscape:document-units="mm"
     inkscape:current-layer="layer1"
     showgrid="false"
     fit-margin-top="0"
     fit-margin-left="0"
     fit-margin-right="0"
     fit-margin-bottom="0"
     units="px"
     inkscape:window-width="1280"
     inkscape:window-height="744"
     inkscape:window-x="-4"
     inkscape:window-y="-4"
     inkscape:window-maximized="1" />
  <metadata
     id="metadata3457">
    <rdf:RDF>
      <cc:Work
         rdf:about="">
        <dc:format>image/svg+xml</dc:format>
        <dc:type
           rdf:resource="http://purl.org/dc/dcmitype/StillImage" />
        <dc:title></dc:title>
      </cc:Work>
    </rdf:RDF>
  </metadata>
  <g
     inkscape:label="Layer 1"
     inkscape:groupmode="layer"
     id="layer1"
     transform="translate(7.8400807,-340.69216)">
    <path
       id="path3464"
       d="m -0.40919428,353.28633 c -0.15875,-0.21167 -0.396875,-0.3175 -0.63500002,-0.3175 -0.6614583,0 -1.0583333,0.68791 -1.0583333,1.34937 0,0.68792 0.396875,1.37583 1.0583333,1.37583 0.23812502,0 0.47625002,-0.10583 0.63500002,-0.3175 v 0 0.23813 h 0.635 v -2.56646 h -0.6614583 v 0.23813 z m -0.50270834,1.7727 c -0.34395838,0 -0.55562498,-0.37041 -0.55562498,-0.71437 0,-0.34396 0.2116666,-0.71438 0.55562498,-0.71438 0.34395834,0 0.55562504,0.37042 0.55562504,0.71438 0,0.34396 -0.2116667,0.71437 -0.55562504,0.71437 z m 2.54000002,-1.74625 v 0 -0.26458 H 0.96663902 v 2.56646 H 1.6280974 v -1.16417 c 0,-0.39687 0.052917,-0.84666 0.5027083,-0.84666 0.1058333,0 0.185208,0.0265 0.264583,0.10583 l 0.07938,-0.68792 c -0.07938,-0.0265 -0.185208,-0.0529 -0.264583,-0.0529 -0.2645833,0 -0.4497917,0.13229 -0.5820833,0.34396 z m 1.3758333,2.30188 h 0.661458 v -3.22792 h -0.661458 z m 4.630208,-3.22792 h -0.661458 v 3.25438 h 0.661458 v -1.95792 h 0.529167 v -0.60854 h -0.529167 z m -11.932708,1.95792 c 0,0.74083 0.47625,1.34937 1.1641667,1.34937 0.2116666,0 0.396875,-0.0529 0.5820833,-0.15875 v -0.55562 c -0.1058333,0.0794 -0.238125,0.10583 -0.396875,0.10583 -0.052917,0 -0.1058333,0 -0.15875,-0.0265 -0.1058333,-0.0265 -0.2116667,-0.0529 -0.2910417,-0.13229 -0.1852083,-0.13229 -0.3175,-0.37042 -0.3175,-0.635 0,-0.26458 0.1322917,-0.47625 0.3175,-0.635 0.079375,-0.0794 0.1852084,-0.13229 0.3175,-0.13229 0.026458,0 0.079375,0 0.1058334,0 0.1322916,0 0.2645833,0.0529 0.396875,0.10583 v -0.55562 c -0.15875,-0.10583 -0.3439584,-0.15875 -0.5291667,-0.15875 -0.6879167,0.0529 -1.190625,0.66146 -1.190625,1.42875 z m -0.8466667,-0.29104 c -0.238125,-0.10584 -0.47625,-0.15875 -0.47625,-0.34396 0,-0.13229 0.1058334,-0.21167 0.2116667,-0.21167 0.1322917,0 0.2645833,0.0794 0.3439583,0.18521 l 0.2910417,-0.42333 c -0.1852083,-0.18521 -0.5027083,-0.26459 -0.7408333,-0.26459 -0.4233334,0 -0.7408334,0.34396 -0.7408334,0.82021 0,0.42334 0.238125,0.55563 0.4497917,0.68792 0.2645833,0.0794 0.47625,0.13229 0.47625,0.34396 0,0.15875 -0.1058333,0.26458 -0.2645833,0.26458 -0.1852084,0 -0.3704167,-0.13229 -0.5027084,-0.29104 l -0.2910416,0.44979 c 0.2116666,0.26458 0.5027083,0.42333 0.8202083,0.42333 0.47625,0 0.8995833,-0.34395 0.8995833,-0.89958 0,-0.44979 -0.238125,-0.635 -0.47625,-0.74083 z m 10.4774997,-1.08479 c -0.740833,0 -1.11125,0.60854 -1.11125,1.40229 0,0.76729 0.449792,1.34937 1.164167,1.34937 0.449792,0 0.846667,-0.26458 1.031875,-0.71437 l -0.635,-0.15875 c -0.07938,0.18521 -0.211667,0.3175 -0.423333,0.3175 -0.343959,0 -0.449792,-0.37042 -0.449792,-0.68792 h 1.534583 v -0.0794 c 0,-0.79375 -0.343958,-1.42875 -1.11125,-1.42875 z m -0.396875,1.03187 c 0.02646,-0.26458 0.185209,-0.52917 0.449792,-0.52917 0.264583,0 0.396875,0.26459 0.449792,0.52917 z m 4.392084,-8.30792 c -0.3175,-0.55562 -1.005417,-0.74083 -1.561042,-0.42333 l -3.783542,2.16958 2.169584,-3.78354 c 0.3175,-0.55562 0.132291,-1.24354 -0.423334,-1.56104 -0.555625,-0.3175 -1.243541,-0.13229 -1.561041,0.42333 l -2.1695837,3.78355 v -4.33917 c 0,-0.635 -0.5027083,-1.13771 -1.13770828,-1.13771 -0.635,0 -1.1377083,0.50271 -1.1377083,1.13771 v 4.36562 l -2.14312502,-3.78354 c -0.3175,-0.55562 -1.0054167,-0.74083 -1.5610417,-0.42333 -0.555625,0.3175 -0.7408333,1.00542 -0.4233333,1.56104 l 2.1695833,3.78354 -3.7570833,-2.16958 c -0.555625,-0.3175 -1.2435417,-0.13229 -1.5610417,0.42333 -0.3175,0.55563 -0.1322916,1.24354 0.4233334,1.56104 l 7.03791662,4.04813 c 0.2645833,0.15875 0.6614583,0.23812 1.0054167,0.23812 0.34395828,0 0.74083328,-0.0794 1.00541658,-0.23812 l 7.0379167,-4.04813 c 0.502708,-0.34395 0.687917,-1.03187 0.370417,-1.5875 z"
       class="st0"
       inkscape:connector-curvature="0"
       style="fill:#ef3f35;stroke-width:0.26458332" />
  </g>
  <style
     id="style3462"
     type="text/css">
	.st0{fill:#EF3F35;}
</style>
</svg>